<?xml version="1.0" encoding="utf-8"?>
<!-- Generator: Adobe Illustrator 28.0.0, SVG Export Plug-In . SVG Version: 6.00 Build 0)  -->
<svg version="1.1" id="Capa_1" xmlns="http://www.w3.org/2000/svg" xmlns:xlink="http://www.w3.org/1999/xlink" x="0px" y="0px"
	 viewBox="0 0 126.02 117.13" style="enable-background:new 0 0 126.02 117.13;" xml:space="preserve">
<style type="text/css">
	.st0{fill-rule:evenodd;clip-rule:evenodd;fill:#FFFFFF;}
	.st1{fill:#FFFFFF;}
	.st2{fill:#358644;}
	.st3{fill:#ECBF18;}
	.st4{fill:#70AA41;}
</style>
<g>
	<g>
		<g>
			<path class="st1" d="M116.22,28.51h-13.37V4.2c0-2.32-1.88-4.2-4.2-4.2H27.37c-2.32,0-4.2,1.88-4.2,4.2v24.31H9.8
				c-5.4,0-9.8,4.4-9.8,9.8v42.26c0,5.4,4.4,9.8,9.8,9.8h13.37v22.55c0,2.32,1.88,4.2,4.2,4.2h71.28c2.32,0,4.2-1.88,4.2-4.2V90.38
				h13.37c5.4,0,9.8-4.4,9.8-9.8V38.31C126.02,32.91,121.62,28.51,116.22,28.51z M31.57,8.4h62.88v20.11H31.57V8.4z M94.45,108.73
				H31.57c0-0.82,0-33.35,0-34.37h62.88C94.45,75.4,94.45,107.94,94.45,108.73z M117.62,80.58c0,0.77-0.63,1.4-1.4,1.4h-13.37V70.16
				c0-2.32-1.88-4.2-4.2-4.2H27.37c-2.32,0-4.2,1.88-4.2,4.2v11.82H9.8c-0.77,0-1.4-0.63-1.4-1.4V38.32c0-0.77,0.63-1.4,1.4-1.4
				c3.22,0,103.27,0,106.42,0c0.77,0,1.4,0.63,1.4,1.4V80.58L117.62,80.58z"/>
		</g>
	</g>
	<g>
		<g>
			<path class="st1" d="M98.65,44.78H87.96c-2.32,0-4.2,1.88-4.2,4.2c0,2.32,1.88,4.2,4.2,4.2h10.69c2.32,0,4.2-1.88,4.2-4.2
				C102.85,46.66,100.97,44.78,98.65,44.78z"/>
		</g>
	</g>
	<g>
		<g>
			<path class="st1" d="M81.21,93.97H44.81c-2.32,0-4.2,1.88-4.2,4.2c0,2.32,1.88,4.2,4.2,4.2h36.41c2.32,0,4.2-1.88,4.2-4.2
				C85.41,95.85,83.53,93.97,81.21,93.97z"/>
		</g>
	</g>
	<g>
		<g>
			<path class="st1" d="M81.21,80.72H44.81c-2.32,0-4.2,1.88-4.2,4.2c0,2.32,1.88,4.2,4.2,4.2h36.41c2.32,0,4.2-1.88,4.2-4.2
				C85.41,82.6,83.53,80.72,81.21,80.72z"/>
		</g>
	</g>
</g>
</svg>
