<?xml version="1.0" encoding="utf-8"?>
<!-- Generator: Adobe Illustrator 28.0.0, SVG Export Plug-In . SVG Version: 6.00 Build 0)  -->
<svg version="1.1" id="Capa_1" xmlns="http://www.w3.org/2000/svg" xmlns:xlink="http://www.w3.org/1999/xlink" x="0px" y="0px"
	 viewBox="0 0 119.78 119.78" style="enable-background:new 0 0 119.78 119.78;" xml:space="preserve">
<style type="text/css">
	.st0{fill-rule:evenodd;clip-rule:evenodd;fill:#FFFFFF;}
	.st1{fill:#FFFFFF;}
	.st2{fill:#358644;}
	.st3{fill:#ECBF18;}
	.st4{fill:#70AA41;}
</style>
<g>
	<path class="st1" d="M111.61,49H70.78V8.17c0-4.51-3.66-8.17-8.17-8.17h-5.44C52.66,0,49,3.66,49,8.17V49H8.17
		C3.66,49,0,52.66,0,57.17v5.44c0,4.51,3.66,8.17,8.17,8.17H49v40.83c0,4.51,3.66,8.17,8.17,8.17h5.44c4.51,0,8.17-3.66,8.17-8.17
		V70.78h40.83c4.51,0,8.17-3.66,8.17-8.17v-5.44C119.78,52.66,116.12,49,111.61,49z"/>
</g>
</svg>
