<?xml version="1.0" encoding="utf-8"?>
<!-- Generator: Adobe Illustrator 28.0.0, SVG Export Plug-In . SVG Version: 6.00 Build 0)  -->
<svg version="1.1" id="Capa_1" xmlns="http://www.w3.org/2000/svg" xmlns:xlink="http://www.w3.org/1999/xlink" x="0px" y="0px"
	 viewBox="0 0 138.92 130.85" style="enable-background:new 0 0 138.92 130.85;" xml:space="preserve">
<style type="text/css">
	.st0{fill-rule:evenodd;clip-rule:evenodd;fill:#FFFFFF;}
	.st1{fill:#FFFFFF;}
	.st2{fill:#358644;}
	.st3{fill:#ECBF18;}
	.st4{fill:#70AA41;}
</style>
<g>
	<path class="st0" d="M70.24,10.67c-0.49-0.25-1.07-0.25-1.56,0l-55.01,27.5c-1.29,0.64-1.29,2.48,0,3.13l55.01,27.5
		c0.49,0.25,1.07,0.25,1.56,0l55.01-27.5c1.29-0.64,1.29-2.48,0-3.13L70.24,10.67z M63.99,1.29c3.44-1.72,7.5-1.72,10.94,0
		l55.01,27.5c9.02,4.51,9.02,17.38,0,21.88l-55.01,27.5c-3.44,1.72-7.5,1.72-10.94,0L8.98,50.68c-9.02-4.51-9.02-17.38,0-21.88
		L63.99,1.29z M0.55,66.29c1.3-2.59,4.44-3.64,7.03-2.34l61.09,30.55c0.49,0.25,1.07,0.25,1.56,0l61.09-30.55
		c2.59-1.3,5.74-0.25,7.03,2.34c1.3,2.59,0.25,5.74-2.35,7.04l-61.09,30.55c-3.44,1.72-7.5,1.72-10.94,0L2.9,73.33
		C0.31,72.03-0.74,68.88,0.55,66.29z M7.59,89.63C5,88.34,1.85,89.39,0.55,91.98c-1.3,2.59-0.25,5.74,2.35,7.04l61.09,30.55
		c3.44,1.72,7.5,1.72,10.94,0l61.09-30.55c2.59-1.3,3.64-4.44,2.35-7.04c-1.29-2.59-4.44-3.64-7.03-2.34l-61.09,30.55
		c-0.49,0.25-1.07,0.25-1.56,0L7.59,89.63z"/>
</g>
</svg>
