<?xml version="1.0" encoding="utf-8"?>
<!-- Generator: Adobe Illustrator 28.0.0, SVG Export Plug-In . SVG Version: 6.00 Build 0)  -->
<svg version="1.1" id="Capa_1" xmlns="http://www.w3.org/2000/svg" xmlns:xlink="http://www.w3.org/1999/xlink" x="0px" y="0px"
	 viewBox="0 0 105.01 104.4" style="enable-background:new 0 0 105.01 104.4;" xml:space="preserve">
<style type="text/css">
	.st0{fill-rule:evenodd;clip-rule:evenodd;fill:#FFFFFF;}
	.st1{fill:#FFFFFF;}
	.st2{fill:#358644;}
	.st3{fill:#ECBF18;}
	.st4{fill:#70AA41;}
</style>
<g>
	<g>
		<g>
			<path class="st1" d="M105.01,84.27c0,11.11-9.01,20.13-20.13,20.13c-11.07,0-20.13-9.01-20.13-20.13c0-0.26,0-0.57,0.04-0.83
				L39.2,68.61c-4.2,4.2-9.98,6.83-16.32,6.83C10.28,75.43,0,65.15,0,52.55c0-12.6,10.28-22.88,22.88-22.88
				c6.43,0,12.3,2.71,16.45,7l27.26-13.7c-0.22-1.14-0.35-2.36-0.35-3.59C66.24,8.71,74.95,0,85.63,0s19.38,8.71,19.38,19.38
				c0,10.72-8.71,19.38-19.38,19.38c-6.3,0-11.95-3.02-15.49-7.74L44.1,44.11c1.09,2.62,1.66,5.47,1.66,8.44
				c0,3.06-0.61,6.04-1.75,8.71l23.19,13.48c3.37-6.3,10.06-10.59,17.68-10.59C96,64.14,105.01,73.16,105.01,84.27z"/>
		</g>
	</g>
</g>
</svg>
