<?xml version="1.0" encoding="utf-8"?>
<!-- Generator: Adobe Illustrator 28.0.0, SVG Export Plug-In . SVG Version: 6.00 Build 0)  -->
<svg version="1.1" id="Capa_1" xmlns="http://www.w3.org/2000/svg" xmlns:xlink="http://www.w3.org/1999/xlink" x="0px" y="0px"
	 viewBox="0 0 415.67 106.74" style="enable-background:new 0 0 415.67 106.74;" xml:space="preserve">
<style type="text/css">
	.st0{fill-rule:evenodd;clip-rule:evenodd;fill:#FFFFFF;}
	.st1{fill:#FFFFFF;}
	.st2{fill:#358644;}
	.st3{fill:#ECBF18;}
	.st4{fill:#70AA41;}
</style>
<g>
	<g>
		<path class="st2" d="M114.25,104.77H94.56V1.97h19.69V104.77z"/>
		<path class="st2" d="M80.23,62.96c-1.36-3.13-3.14-5.76-5.34-7.9c-2.2-2.13-4.71-3.88-7.52-5.24c-2.81-1.36-5.65-2.45-8.51-3.26
			c-2.86-0.81-5.62-1.45-8.3-1.9c-2.67-0.45-4.99-0.91-6.96-1.36c-2.63-0.63-5.34-1.27-8.16-1.91c-2.81-0.63-5.39-1.41-7.74-2.31
			c-2.35-0.91-4.27-2.04-5.77-3.4c-1.5-1.36-2.25-3.04-2.25-5.04c0-1.99,0.63-3.7,1.9-5.1c1.27-1.41,2.86-2.57,4.78-3.47
			c1.92-0.91,3.96-1.57,6.12-1.98c1.89-0.36,3.84-0.64,5.43-0.71v0.04h38.33V1.83H40.46c-0.46-0.01-0.88-0.05-1.37-0.05
			c-0.29,0-0.59,0.04-0.89,0.05h-0.29v0.01c-3.96,0.07-8.03,0.48-12.25,1.3c-4.64,0.91-8.86,2.48-12.66,4.7
			c-3.8,2.22-6.92,5.26-9.35,9.12C1.22,20.81,0,25.65,0,31.45c0,3.99,0.68,7.47,2.04,10.41c1.36,2.95,3.16,5.49,5.41,7.62
			c2.25,2.13,4.78,3.9,7.59,5.31c2.81,1.41,5.67,2.54,8.58,3.4c2.9,0.86,5.72,1.54,8.44,2.04c2.72,0.5,5.11,0.93,7.17,1.29
			c3.09,0.54,6.07,1.13,8.93,1.77c2.86,0.64,5.34,1.41,7.45,2.31c2.11,0.91,3.8,2.07,5.06,3.47c1.27,1.41,1.9,3.11,1.9,5.1
			c0,1.55-0.42,3.11-1.27,4.7c-0.84,1.59-2.11,2.99-3.8,4.22c-1.69,1.23-3.75,2.23-6.19,2.99c-2.44,0.77-5.16,1.07-8.35,1.07
			c-0.75,0-1.85,0-2.31,0.02l0,0H2.7v17.59h37.81l0,0.02c0.82,0.02,1.81,0.02,2.67,0.02c5.81,0,11.11-0.63,15.89-1.91
			c4.78-1.27,8.91-3.15,12.38-5.65c3.47-2.49,6.14-5.65,8.02-9.46c1.87-3.81,2.81-8.3,2.81-13.47
			C82.27,69.88,81.59,66.09,80.23,62.96z"/>
		<path class="st3" d="M413.63,62.96c-1.36-3.13-3.14-5.76-5.34-7.9c-2.2-2.13-4.71-3.88-7.52-5.24c-2.81-1.36-5.65-2.45-8.51-3.26
			c-2.86-0.81-5.62-1.45-8.3-1.9c-2.67-0.45-4.99-0.91-6.96-1.36c-2.63-0.63-5.34-1.27-8.16-1.91c-2.81-0.63-5.39-1.41-7.74-2.31
			c-2.35-0.91-4.27-2.04-5.77-3.4c-1.5-1.36-2.25-3.04-2.25-5.04c0-1.99,0.63-3.7,1.9-5.1c1.27-1.41,2.86-2.57,4.78-3.47
			c1.92-0.91,3.96-1.57,6.12-1.98c1.89-0.36,3.84-0.64,5.43-0.71v0.04h38.33V1.83h-35.79c-0.46-0.01-0.88-0.05-1.37-0.05
			c-0.29,0-0.59,0.04-0.89,0.05h-0.29v0.01c-3.96,0.07-8.03,0.48-12.25,1.3c-4.64,0.91-8.86,2.48-12.66,4.7
			c-3.8,2.22-6.92,5.26-9.35,9.12c-2.44,3.86-3.66,8.69-3.66,14.49c0,3.99,0.68,7.47,2.04,10.41c1.36,2.95,3.16,5.49,5.41,7.62
			c2.25,2.13,4.78,3.9,7.59,5.31c2.81,1.41,5.67,2.54,8.58,3.4c2.9,0.86,5.72,1.54,8.44,2.04c2.72,0.5,5.11,0.93,7.17,1.29
			c3.09,0.54,6.07,1.13,8.93,1.77c2.86,0.64,5.34,1.41,7.45,2.31c2.11,0.91,3.8,2.07,5.06,3.47c1.27,1.41,1.9,3.11,1.9,5.1
			c0,1.55-0.42,3.11-1.26,4.7c-0.84,1.59-2.11,2.99-3.8,4.22c-1.69,1.23-3.75,2.23-6.19,2.99c-2.44,0.77-5.16,1.07-8.35,1.07
			c-0.75,0-1.85,0-2.31,0.02l0,0H336.1v17.59h37.81l0,0.02c0.82,0.02,1.81,0.02,2.67,0.02c5.81,0,11.11-0.63,15.89-1.91
			c4.78-1.27,8.91-3.15,12.38-5.65c3.47-2.49,6.14-5.65,8.02-9.46c1.87-3.81,2.81-8.3,2.81-13.47
			C415.67,69.88,414.99,66.09,413.63,62.96z"/>
		<path class="st3" d="M322.29,31.43c-2.58-6.52-6.39-12.07-11.44-16.66c-9.46-8.62-21.54-12.94-36.23-12.94h-40.59v102.94h40.59
			c7.3,0,14.02-1.07,20.15-3.23c6.13-2.16,11.5-5.34,16.08-9.56c5.06-4.59,8.87-10.16,11.44-16.66c2.58-6.52,3.86-13.86,3.86-22.02
			C326.15,45.24,324.86,37.95,322.29,31.43z"/>
		<g>
			<path class="st2" d="M214.93,48.52h-2.8c-2.79,14.57-9.19,24.25-9.19,24.25l-0.06,0.03c-0.49,0.83-0.98,1.66-1.56,2.44
				c-2.02,2.72-4.38,5.06-7.1,7.03c-2.72,1.97-5.72,3.5-9,4.57c-3.28,1.08-6.7,1.62-10.27,1.62c-4.69,0-9.07-0.96-13.15-2.88
				c-4.08-1.92-7.64-4.48-10.69-7.67c-3.05-3.19-5.46-6.89-7.24-11.11c-1.78-4.22-2.67-8.67-2.67-13.36c0-4.59,0.89-9.02,2.67-13.29
				c1.78-4.27,4.19-7.99,7.24-11.18c3.04-3.19,6.61-5.74,10.69-7.67c4.08-1.92,8.46-2.88,13.15-2.88c5.62,0,10.85,1.5,15.68,4.5
				c2.44,1.52,4.64,3.22,6.62,5.09l0.06-0.16l13.32-14.11c-3.05-2.76-6.42-5.2-10.16-7.28C192.74,2.16,184.23,0,174.95,0
				c-7.31,0-14.2,1.4-20.67,4.22c-6.47,2.81-12.13,6.63-16.99,11.46c-4.86,4.83-8.7,10.5-11.53,17.02
				c-2.83,6.52-4.25,13.43-4.25,20.74c0,7.32,1.42,14.21,4.25,20.68c2.83,6.47,6.68,12.12,11.53,16.95
				c4.85,4.83,10.52,8.65,16.99,11.46c6.47,2.81,13.36,4.22,20.67,4.22c6.66,0,13.01-1.12,19.06-3.37
				c6.05-2.25,11.39-5.37,16.03-9.36c4.64-3.98,8.44-8.74,11.39-14.27c2.95-5.53,4.71-11.53,5.27-18
				C227.52,54.7,222.02,48.52,214.93,48.52z"/>
			<path class="st4" d="M175.81,66.24h21.21c3.92-5.66,6-12.34,7.09-17.72h-28.3V66.24z"/>
		</g>
	</g>
	<g>
		<path class="st1" d="M302.7,34.11c0.44,1.28,0.48,2.56,0.12,3.83c-0.66,1.98-2.05,3.62-3.74,4.93c-0.05,0.04-0.06,0.08-0.04,0.12
			c-0.05-0.01-0.09,0.01-0.15,0.05c-1.72,1.32-3.63,2.42-5.73,3.29c-4.23,1.67-8.82,2.85-13.78,3.55
			c-8.24,1.16-16.47,1.28-24.7,0.36c-2.29-0.26-4.45-0.66-6.5-1.22c-0.8-0.22-1.55-0.49-2.24-0.83c-0.12-0.06-0.11-0.1,0.02-0.11
			c7.72-1.1,15.42-2.49,23.11-4.16c4.03-0.88,7.92-1.87,11.67-2.97c3.89-1.14,7.5-2.4,11.01-4.26c1.51-0.8,2.83-1.92,3.97-3.37
			c0.7-0.96,1.01-1.98,0.92-3.06c-0.26-1.24-0.89-2.3-1.88-3.18c-1.06-0.94-2.18-1.72-3.35-2.35c-1.88-0.99-3.85-1.83-5.91-2.51
			c-0.02-0.01-0.02-0.02-0.02-0.04l0,0c0.01-0.02,0.02-0.03,0.04-0.02c5.72,1.47,10.69,4.29,14.9,8.44
			C301.38,31.53,302.14,32.7,302.7,34.11L302.7,34.11z"/>
		<path class="st1" d="M291.05,27.96c-0.21,0.93-0.69,1.74-1.45,2.43c-0.92,0.81-1.87,1.44-2.84,1.91c-2.3,1.11-4.85,1.93-7.62,2.46
			c-6.1,1.16-12.5,1.25-19.22,0.25c-2.23-0.33-4.54-0.94-6.93-1.84c-0.19-0.07-0.19-0.12,0.02-0.14c5.86-0.7,11.68-1.62,17.45-2.75
			c3.04-0.6,5.88-1.31,8.51-2.14c1.28-0.4,4.92-1.66,5.06-3.18c0.15-1.61-2.34-2.17-3.5-2.3c-0.34-0.04-0.34-0.09-0.01-0.15
			c0.7-0.13,1.44-0.16,2.2-0.07c2.65,0.3,5.11,1.08,7.06,2.8C290.62,25.97,291.04,26.88,291.05,27.96L291.05,27.96z"/>
		<path class="st1" d="M306.63,39.21c0.79,1.38,1.32,2.5,1.59,3.35c0.5,1.57,0.92,3.16,1.26,4.78c0.36,1.73,0.14,3.11-0.29,4.79
			c-0.7,1.91-1.8,3.56-3.27,4.96c0,0.01,0,0.01,0,0.02c0,0.01,0,0.03-0.01,0.04c-1.92,1.72-4.07,3.14-6.44,4.26
			c-2.58,1.19-5.26,2.18-8.04,2.97c-0.02,0.01-0.04,0.02-0.05,0.03c-0.01,0.02-0.03,0.03-0.04,0.04c-0.08-0.01-0.15-0.01-0.21,0.01
			c-3.08,0.83-6.19,1.48-9.34,1.95c-6.31,0.95-12.61,1.37-18.93,1.24c-2.34-0.05-4.67-0.19-7-0.43c-1.92-0.2-3.8-0.54-5.63-1.03
			c-0.93-0.25-1.83-0.59-2.68-1.01c-0.3-0.15-0.29-0.25,0.05-0.3c7.03-1.09,14.29-2.47,21.78-4.15c7.42-1.66,14.23-3.58,20.43-5.76
			c3.16-1.11,6.37-2.5,9.62-4.18c0.05-0.02,0.09-0.05,0.12-0.09c0.03-0.04,0.07-0.08,0.1-0.11c0.11-0.02,0.21-0.06,0.31-0.12
			c1.74-1.1,3.32-2.37,4.73-3.8c1.3-1.38,2.05-2.88,2.26-4.52C306.99,41.2,306.88,40.22,306.63,39.21L306.63,39.21z"/>
		<path class="st1" d="M261.27,25.01c4.26-3.64,9.63-4.99,15.02-3.63c0.26,0.06,0.41,0.33,0.32,0.58c-0.19,0.6-1.3,1.22-1.88,1.49
			c-4.04,1.88-8.93,2.56-13.44,1.64C261.26,25.09,261.24,25.04,261.27,25.01L261.27,25.01z"/>
		<path class="st1" d="M309.8,57.83c-0.35,3.22-1.2,6.29-2.57,9.21c-0.49,1.04-1,1.87-1.56,2.49c-0.46,0.52-0.91,1.02-1.33,1.48
			c-1.68,1.43-3.46,2.62-5.35,3.57c-0.01,0.01-0.03,0.02-0.04,0.02c-2.41,1.15-4.91,2.08-7.49,2.78l-5.64,1.31
			c-2.16,0.37-3.76,0.61-4.81,0.73c-4.78,0.51-9.53,0.75-14.34,0.53c-3.42-0.16-6.52-0.6-9.3-1.33c-0.26-0.07-0.52-0.16-0.76-0.26
			c-0.1-0.04-0.09-0.07,0.01-0.09c11.17-2.03,21.74-4.27,32.26-7.26c2.68-0.76,5.15-1.57,7.41-2.42c2.49-0.81,4.8-1.87,6.95-3.19
			c1.7-1.08,3.17-2.34,4.43-3.78c0.06-0.07,0.09-0.15,0.1-0.24c0.04,0.03,0.08,0.03,0.11-0.01
			C308.68,60.37,309.32,59.18,309.8,57.83L309.8,57.83z"/>
		<path class="st1" d="M301.26,75.88c-1.5,1.71-3.2,3.21-5.1,4.5c-2.6,1.76-5.11,3.12-7.52,4.09c-2.28,0.91-4.69,1.54-7.22,1.87
			c-4.21,0.56-8.61,0.64-12.6-0.74c-0.93-0.32-1.77-0.75-2.51-1.29c-0.23-0.16-0.2-0.21,0.07-0.14c0.69,0.18,1.36,0.31,2,0.39
			c3.13,0.41,6.51,0.35,10.14-0.18c2.45-0.36,4.67-0.81,6.67-1.35c1.94-0.52,4.08-1.21,6.41-2.07c0.27-0.1,0.46-0.21,0.59-0.33
			c-0.03,0.01-0.03,0.02,0,0.05c0.02,0.02,0.04,0.02,0.06,0.01c1.94-0.78,3.82-1.65,5.64-2.62c0.62-0.31,1.14-0.62,1.54-0.91
			C300.2,76.59,300.81,76.17,301.26,75.88L301.26,75.88z"/>
	</g>
</g>
</svg>
