<?xml version="1.0" encoding="utf-8"?>
<!-- Generator: Adobe Illustrator 28.0.0, SVG Export Plug-In . SVG Version: 6.00 Build 0)  -->
<svg version="1.1" id="Capa_1" xmlns="http://www.w3.org/2000/svg" xmlns:xlink="http://www.w3.org/1999/xlink" x="0px" y="0px"
	 viewBox="0 0 111.43 111.46" style="enable-background:new 0 0 111.43 111.46;" xml:space="preserve">
<style type="text/css">
	.st0{fill-rule:evenodd;clip-rule:evenodd;fill:#FFFFFF;}
	.st1{fill:#FFFFFF;}
	.st2{fill:#358644;}
	.st3{fill:#ECBF18;}
	.st4{fill:#70AA41;}
</style>
<g>
	<g>
		<g>
			<g>
				<path class="st1" d="M2.45,109.01c1.63,1.63,3.77,2.45,5.91,2.45c2.14,0,4.28-0.82,5.91-2.45L42.5,80.77
					c7.25,4.93,15.81,7.59,24.77,7.59c11.8,0,22.89-4.59,31.24-12.94c17.22-17.22,17.22-45.25,0-62.48C90.17,4.6,79.08,0,67.28,0
					S44.38,4.6,36.04,12.94C27.69,21.28,23.1,32.38,23.1,44.18c0,8.96,2.66,17.52,7.59,24.77L2.45,97.19
					C-0.82,100.46-0.82,105.75,2.45,109.01z M38.25,44.18c0-7.75,3.02-15.04,8.5-20.53c5.48-5.48,12.77-8.5,20.53-8.5
					s15.04,3.02,20.53,8.5c11.32,11.32,11.32,29.73,0,41.05c-5.48,5.48-12.77,8.5-20.53,8.5c-7.75,0-15.04-3.02-20.53-8.5
					C41.27,59.22,38.25,51.93,38.25,44.18z"/>
				<path class="st1" d="M52.35,31.53c-4.58,4.81-7.1,11.08-7.1,17.64c0,2.55,2.06,4.61,4.61,4.61c2.55,0,4.61-2.06,4.61-4.61
					c0-4.19,1.62-8.2,4.56-11.29c1.75-1.85,1.68-4.76-0.16-6.52C57.03,29.61,54.11,29.68,52.35,31.53z"/>
				<path class="st1" d="M61.89,29.63c0.52,2.09,2.4,3.49,4.47,3.49c0.37,0,0.75-0.04,1.12-0.14c1.43-0.36,2.91-0.54,4.4-0.54
					c2.55,0,4.61-2.06,4.61-4.61c0-2.55-2.06-4.61-4.61-4.61c-2.25,0-4.48,0.27-6.64,0.81C62.77,24.65,61.27,27.16,61.89,29.63z"/>
			</g>
		</g>
	</g>
</g>
</svg>
