<?xml version="1.0" encoding="utf-8"?>
<!-- Generator: Adobe Illustrator 28.0.0, SVG Export Plug-In . SVG Version: 6.00 Build 0)  -->
<svg version="1.1" id="Capa_1" xmlns="http://www.w3.org/2000/svg" xmlns:xlink="http://www.w3.org/1999/xlink" x="0px" y="0px"
	 viewBox="0 0 36.81 36.7" style="enable-background:new 0 0 36.81 36.7;" xml:space="preserve">
<style type="text/css">
	.st0{fill-rule:evenodd;clip-rule:evenodd;fill:#FFFFFF;}
	.st1{fill:#FFFFFF;}
	.st2{fill:#358644;}
	.st3{fill:#ECBF18;}
	.st4{fill:#70AA41;}
</style>
<g id="Layer_51_00000182520780462553431520000014643557894764141453_">
	<path class="st1" d="M35.49,5.66l-4.34-4.34c-1.76-1.75-4.6-1.75-6.35,0l-4.24,4.23L2.24,23.87c-0.72,0.72-1.17,1.67-1.29,2.68
		l-0.94,8.49c-0.09,0.82,0.5,1.56,1.32,1.65c0.05,0.01,0.11,0.01,0.16,0.01c0.06,0,0.11,0,0.16-0.01l8.49-0.94
		c1.01-0.11,1.95-0.56,2.67-1.27l22.66-22.45c1.76-1.75,1.78-4.59,0.03-6.35C35.51,5.67,35.5,5.66,35.49,5.66L35.49,5.66z
		 M13.16,29.92l-6.37-6.37L21.62,8.72l6.44,6.44L13.16,29.92z M9.83,32.76L3.2,33.5l0.73-6.62c0.04-0.34,0.19-0.66,0.43-0.9
		l0.32-0.32l6.36,6.36l-0.32,0.31C10.47,32.58,10.16,32.73,9.83,32.76L9.83,32.76z M33.37,9.89l-3.19,3.16l-6.44-6.44l3.17-3.18
		c0.58-0.58,1.53-0.58,2.12,0l4.34,4.34C33.96,8.36,33.96,9.3,33.37,9.89C33.38,9.89,33.38,9.89,33.37,9.89L33.37,9.89z"/>
</g>
</svg>
