<?xml version="1.0" encoding="utf-8"?>
<!-- Generator: Adobe Illustrator 28.0.0, SVG Export Plug-In . SVG Version: 6.00 Build 0)  -->
<svg version="1.1" id="Capa_1" xmlns="http://www.w3.org/2000/svg" xmlns:xlink="http://www.w3.org/1999/xlink" x="0px" y="0px"
	 viewBox="0 0 139.51 138.37" style="enable-background:new 0 0 139.51 138.37;" xml:space="preserve">
<style type="text/css">
	.st0{fill-rule:evenodd;clip-rule:evenodd;fill:#FFFFFF;}
	.st1{fill:#FFFFFF;}
	.st2{fill:#358644;}
	.st3{fill:#ECBF18;}
	.st4{fill:#70AA41;}
</style>
<g>
	<g>
		<path class="st1" d="M6.85,114.66l16.22,16.54c9.26,9.44,24.48,9.59,33.92,0.33l75.35-73.89c9.44-9.26,9.59-24.48,0.33-33.92
			L116.45,7.18c-9.26-9.44-24.48-9.59-33.92-0.33L7.18,80.74C-2.26,90-2.41,105.21,6.85,114.66z M90.93,15.41
			c4.72-4.63,12.33-4.56,16.96,0.17l16.22,16.54c4.63,4.72,4.56,12.33-0.17,16.96l-1.12,1.1l-5.35-5.45
			c-2.32-2.36-6.11-2.4-8.48-0.08s-2.4,6.11-0.08,8.48l5.35,5.45L106.68,66l-9.55-9.73c-2.32-2.37-6.11-2.4-8.48-0.08
			c-2.36,2.32-2.4,6.11-0.08,8.48l9.55,9.74l-7.57,7.43l-5.35-5.45c-2.32-2.36-6.11-2.4-8.48-0.08c-2.36,2.32-2.4,6.11-0.08,8.48
			l5.35,5.45l-7.57,7.43l-9.55-9.73c-2.32-2.36-6.11-2.4-8.48-0.08c-2.36,2.32-2.4,6.11-0.08,8.48l9.55,9.73l-7.57,7.43l-5.35-5.45
			c-2.32-2.36-6.11-2.4-8.48-0.08c-2.36,2.32-2.4,6.11-0.08,8.48l5.35,5.45l-1.12,1.1c-4.72,4.63-12.33,4.56-16.96-0.17
			l-16.21-16.54c-4.63-4.72-4.56-12.33,0.17-16.96L90.93,15.41z"/>
		<path class="st1" d="M27.07,91.89c-1.36,2.02-1.38,4.68-0.03,6.71c1.4,2.11,4.04,3.09,6.48,2.47c2.46-0.62,4.29-2.83,4.48-5.35
			c0.19-2.55-1.31-5-3.67-5.98C31.74,88.66,28.65,89.56,27.07,91.89z"/>
	</g>
</g>
</svg>
